<svg width="24" height="24" viewBox="0 0 24 24" fill="none" xmlns="http://www.w3.org/2000/svg">
<path d="M24 12C24 11.568 23.6494 11.2174 23.2174 11.2174H21.9762L23.5099 9.68372C23.8155 9.37805 23.8155 8.88277 23.5099 8.57705C23.2042 8.27133 22.7089 8.27138 22.4032 8.57705L19.7629 11.2174H15.8341C15.7325 10.7185 15.5346 10.2548 15.2624 9.84417L18.0422 7.06434H21.7764C22.2085 7.06434 22.5591 6.71377 22.5591 6.28172C22.5591 5.84967 22.2085 5.49909 21.7764 5.49909H19.6075L20.4854 4.62122C20.791 4.31555 20.791 3.82027 20.4854 3.51455C20.1797 3.20883 19.6844 3.20887 19.3787 3.51455L18.5009 4.39242V2.22352C18.5009 1.79147 18.1503 1.44089 17.7182 1.44089C17.2862 1.44089 16.9356 1.79147 16.9356 2.22352V5.95772L14.1558 8.7375C13.7452 8.4653 13.2815 8.26748 12.7826 8.16577V4.23708L15.4229 1.5968C15.7286 1.29112 15.7286 0.795844 15.4229 0.490125C15.1172 0.184406 14.622 0.184453 14.3162 0.490125L12.7826 2.02373V0.782625C12.7826 0.350578 12.432 0 12 0C11.568 0 11.2174 0.350578 11.2174 0.782625V2.02378L9.68372 0.490172C9.37805 0.1845 8.88277 0.1845 8.57705 0.490172C8.27133 0.795844 8.27138 1.29113 8.57705 1.59684L11.2174 4.23712V8.16586C10.7185 8.26748 10.2548 8.46539 9.84417 8.73759L7.06434 5.95777V2.22352C7.06434 1.79147 6.71377 1.44089 6.28172 1.44089C5.84967 1.44089 5.49909 1.79147 5.49909 2.22352V4.39247L4.62127 3.51459C4.31559 3.20892 3.82031 3.20892 3.51459 3.51459C3.20887 3.82027 3.20892 4.31555 3.51459 4.62127L4.39247 5.49914H2.22352C1.79147 5.49914 1.44089 5.84972 1.44089 6.28177C1.44089 6.71381 1.79147 7.06439 2.22352 7.06439H5.95772L8.73755 9.84422C8.46534 10.2548 8.26753 10.7185 8.16581 11.2174H4.23708L1.5968 8.57714C1.29112 8.27147 0.795844 8.27147 0.490125 8.57714C0.184406 8.88281 0.184453 9.37809 0.490125 9.68381L2.02373 11.2174H0.782625C0.350578 11.2174 0 11.568 0 12C0 12.432 0.350578 12.7826 0.782625 12.7826H2.02378L0.490172 14.3163C0.1845 14.622 0.1845 15.1172 0.490172 15.423C0.642984 15.5758 0.843234 15.6522 1.04348 15.6522C1.24373 15.6522 1.44398 15.5758 1.5968 15.4229L4.23712 12.7826H8.16586C8.26748 13.2815 8.46539 13.7452 8.73759 14.1558L5.95777 16.9357H2.22352C1.79147 16.9357 1.44089 17.2862 1.44089 17.7183C1.44089 18.1503 1.79147 18.5009 2.22352 18.5009H4.39247L3.51459 19.3788C3.20892 19.6845 3.20892 20.1797 3.51459 20.4855C3.66745 20.6383 3.8677 20.7148 4.06791 20.7148C4.26811 20.7148 4.46841 20.6383 4.62122 20.4855L5.49909 19.6076V21.7765C5.49909 22.2086 5.84967 22.5592 6.28172 22.5592C6.71377 22.5592 7.06434 22.2086 7.06434 21.7765V18.0423L9.84417 15.2625C10.2548 15.5347 10.7185 15.7325 11.2174 15.8342V19.763L8.57709 22.4032C8.27142 22.7089 8.27142 23.2042 8.57709 23.5099C8.88277 23.8156 9.37805 23.8156 9.68377 23.5099L11.2174 21.9763V23.2174C11.2174 23.6495 11.568 24 12 24C12.4321 24 12.7827 23.6495 12.7827 23.2174V21.9763L14.3163 23.5099C14.4692 23.6628 14.6694 23.7392 14.8696 23.7392C15.0698 23.7392 15.2701 23.6628 15.423 23.5099C15.7286 23.2043 15.7286 22.709 15.423 22.4032L12.7827 19.7629V15.8342C13.2815 15.7326 13.7453 15.5347 14.1559 15.2625L16.9357 18.0423V21.7765C16.9357 22.2085 17.2863 22.5591 17.7183 22.5591C18.1504 22.5591 18.501 22.2085 18.501 21.7765V19.6075L19.3788 20.4854C19.5317 20.6383 19.7319 20.7147 19.9321 20.7147C20.1323 20.7147 20.3326 20.6383 20.4855 20.4854C20.7911 20.1797 20.7911 19.6845 20.4855 19.3787L19.6076 18.5009H21.7766C22.2086 18.5009 22.5592 18.1503 22.5592 17.7183C22.5592 17.2862 22.2086 16.9357 21.7766 16.9357H18.0424L15.2625 14.1558C15.5347 13.7452 15.7325 13.2815 15.8342 12.7826H19.763L22.4032 15.4229C22.5561 15.5758 22.7564 15.6522 22.9566 15.6522C23.1568 15.6522 23.3571 15.5758 23.5099 15.4229C23.8155 15.1172 23.8155 14.622 23.5099 14.3162L21.9763 12.7826H23.2174C23.6494 12.7826 24 12.432 24 12ZM12 14.3478C10.7054 14.3478 9.65217 13.2946 9.65217 12C9.65217 10.7054 10.7054 9.65217 12 9.65217C13.2946 9.65217 14.3478 10.7054 14.3478 12C14.3478 13.2946 13.2946 14.3478 12 14.3478Z" fill="#99DDFF"/>
</svg>
