<svg width="20" height="26" viewBox="0 0 20 26" fill="none" xmlns="http://www.w3.org/2000/svg">
<path d="M16.0453 3.05688H3.95467C2.33159 3.05688 1.38643 5.08551 2.32799 6.54829L6.45129 12.954C6.93311 13.7026 7.19204 14.5987 7.19204 15.5177V19.9927C7.19204 21.6222 8.38606 22.9432 9.85887 22.9432C11.3317 22.9432 12.5256 21.6222 12.5256 19.9927V15.5836C12.5256 14.6239 12.808 13.6902 13.3301 12.9238L17.6402 6.59638C18.632 5.14039 17.6931 3.05688 16.0453 3.05688Z" stroke="#43E6D5" stroke-width="3" stroke-linecap="round" stroke-linejoin="round"/>
<path d="M12.5256 15.3145C12.5256 14.3754 12.808 13.4619 13.3301 12.7119L17.6402 6.52035C18.632 5.09563 17.6931 3.05688 16.0453 3.05688H3.95467C2.33159 3.05688 1.38643 5.04194 2.32799 6.47328L6.45129 12.7414C6.93311 13.4739 7.19204 14.3508 7.19204 15.25V19.6289" stroke="#006366" stroke-width="3" stroke-linejoin="round"/>
</svg>

