<svg width="24" height="24" viewBox="0 0 24 24" fill="none" xmlns="http://www.w3.org/2000/svg">
<path d="M17.3821 6.06159C17.2939 5.94487 17.1455 5.89073 17.0028 5.92355C16.8602 5.95631 16.7502 6.0698 16.7218 6.21328L16.3918 7.88273L12.3285 0.197625C12.2642 0.0760781 12.138 0 12.0004 0C11.9999 0 11.9993 0 11.9987 0C11.8605 0.00065625 11.7341 0.078 11.6707 0.200719L6.0465 11.0804L5.36184 8.9123C5.31834 8.77448 5.19881 8.67445 5.05552 8.65598C4.91222 8.63737 4.77117 8.7038 4.69406 8.826C3.12281 11.3159 2.32617 13.3661 2.32617 14.9196C2.32617 17.4736 3.33684 19.8018 5.17209 21.4752C6.95766 23.1033 9.38269 24 12.0004 24C14.6182 24 17.0432 23.1033 18.8288 21.4752C20.664 19.8018 21.6747 17.4737 21.6747 14.9196C21.6747 12.8141 20.2305 9.83381 17.3821 6.06159Z" fill="#FF7452"/>
<path d="M14.1778 23.0598C11.56 23.0598 9.135 22.1631 7.34944 20.535C5.51419 18.8616 4.50352 16.5335 4.50352 13.9794C4.50352 12.8806 4.90261 11.5331 5.69184 9.95741L5.3618 8.91224C5.3183 8.77443 5.19877 8.67439 5.05547 8.65593C4.91217 8.63732 4.77112 8.70374 4.69402 8.82594C3.12281 11.3159 2.32617 13.3661 2.32617 14.9196C2.32617 17.4736 3.33684 19.8018 5.17209 21.4752C6.9577 23.1033 9.38273 24 12.0005 24C13.9201 24 15.7358 23.5172 17.272 22.6179C16.2936 22.9085 15.252 23.0598 14.1778 23.0598Z" fill="#E24642"/>
<path d="M5.86426 16.6021C5.86426 13.2133 12.0003 6.30933 12.0003 6.30933C12.0003 6.30933 18.1364 13.2133 18.1364 16.6021C18.1364 19.9909 15.3892 22.7382 12.0003 22.7382C8.61151 22.7382 5.86426 19.991 5.86426 16.6021Z" fill="#FFD652"/>
<path d="M13.4849 21.2536C10.096 21.2536 7.34879 18.5063 7.34879 15.1175C7.34879 12.7603 10.317 8.7033 12.1246 6.45105C12.0448 6.35927 12.0003 6.3092 12.0003 6.3092C12.0003 6.3092 5.86426 13.2132 5.86426 16.602C5.86426 19.9908 8.61151 22.7381 12.0003 22.7381C14.0739 22.7381 15.9069 21.7095 17.0177 20.1348C16.0188 20.8395 14.8002 21.2536 13.4849 21.2536Z" fill="#FB9D46"/>
</svg>
