<svg width="16" height="16" viewBox="0 0 16 16" fill="none" xmlns="http://www.w3.org/2000/svg">
<path d="M10.2877 14.8885V14.1979C10.4869 14.1306 10.7028 14.0464 10.8855 13.9454L11.367 14.4337C11.7987 14.8548 12.4961 14.8548 12.9279 14.4169L14.4556 12.8843C14.8708 12.4464 14.8708 11.739 14.4391 11.3011L13.9741 10.8127C14.0572 10.6106 14.1402 10.4085 14.2232 10.2064H14.904C15.5184 10.2064 16 9.70109 16 9.09477V6.90526C16 6.29894 15.5018 5.79364 14.904 5.79364H14.2232C14.1568 5.57466 14.0737 5.37259 13.9741 5.17051L14.4391 4.69893C14.655 4.49686 14.7712 4.21057 14.7712 3.90735C14.7712 3.58732 14.6549 3.31781 14.4391 3.09895L12.9114 1.54947C12.4797 1.12842 11.7988 1.12842 11.3671 1.56627L10.8856 2.05464C10.6864 1.9704 10.4871 1.88617 10.2713 1.80205L10.2711 1.11161C10.2711 0.488483 9.77294 0 9.15857 0L7.01653 0C6.40215 0 5.90396 0.505295 5.90396 1.11161V1.80217C5.68805 1.88641 5.48882 1.97064 5.28959 2.05476L4.84109 1.58318C4.62518 1.36419 4.35959 1.24636 4.06063 1.24636C3.76179 1.24636 3.49608 1.36432 3.28018 1.58318L1.76905 3.11584C1.55314 3.33483 1.45352 3.62114 1.45352 3.90743C1.45352 4.19371 1.55313 4.48003 1.76905 4.69901L2.56608 5.5074C2.79855 5.74319 3.19712 5.74319 3.4296 5.5074C3.66207 5.27162 3.66207 4.86737 3.4296 4.63158L2.71562 3.90743L4.07733 2.52631L4.7913 3.25046C4.99053 3.45253 5.2895 3.48625 5.52197 3.3515C5.87075 3.14943 6.26919 2.98097 6.71757 2.8462C6.98328 2.76197 7.14928 2.52617 7.14928 2.25667V1.22941L9.05885 1.22941V2.25679C9.05885 2.52629 9.24151 2.77886 9.50723 2.84632C9.93894 2.96427 10.3375 3.13262 10.7028 3.33468C10.9353 3.46944 11.2343 3.43572 11.4335 3.23365L12.1475 2.5095L13.5092 3.89061L12.7952 4.61477C12.596 4.81684 12.5627 5.12006 12.6956 5.35585C12.8948 5.7096 13.0609 6.13065 13.1771 6.56849C13.2435 6.83799 13.4926 7.02326 13.7583 7.02326H14.7713V8.96005H13.7583C13.4926 8.96005 13.2436 9.14532 13.1771 9.41482C13.0608 9.85268 12.8948 10.2569 12.6956 10.6275C12.5627 10.8632 12.596 11.1832 12.7952 11.3685L13.5092 12.0927L12.1475 13.4738L11.4335 12.7497C11.2343 12.5476 10.9353 12.5139 10.7028 12.6486C10.3209 12.8676 9.92236 13.036 9.50723 13.1539C9.24151 13.2212 9.05885 13.474 9.05885 13.7435V14.7708H7.14928L7.14928 13.7602C7.14928 13.4907 6.96661 13.2382 6.7009 13.1707C6.28577 13.0527 5.8872 12.8844 5.50531 12.6654C5.27284 12.5307 4.97387 12.5644 4.77464 12.7664L4.06066 13.4906L2.69896 12.1095L3.41293 11.4021C3.6454 11.1663 3.6454 10.779 3.41293 10.5263C3.18046 10.2905 2.79856 10.2905 2.54942 10.5263L1.73572 11.3347C1.32058 11.7725 1.32058 12.4631 1.75228 12.9009L3.26341 14.4336C3.47932 14.6526 3.7616 14.7704 4.06044 14.7704C4.35928 14.7704 4.625 14.6525 4.82435 14.4336L5.30585 13.9452C5.50508 14.0463 5.70441 14.1305 5.92023 14.1978L5.92023 14.8884C5.92023 15.4947 6.41842 16 7.03279 16H9.19153C9.78957 16 10.2878 15.4947 10.2878 14.8884L10.2877 14.8885Z" fill="#003C40"/>
<path d="M5.96105 10.5093C6.11048 10.5766 6.27659 10.5598 6.40943 10.4588L9.13273 8.33658C9.23234 8.25234 9.29883 8.13451 9.29883 7.99977C9.29883 7.86502 9.23246 7.73026 9.13273 7.66295L6.40943 5.54078C6.32638 5.49026 6.24333 5.45654 6.14372 5.45654C6.07734 5.45654 6.01086 5.47334 5.96105 5.50706C5.81163 5.57438 5.72858 5.72604 5.72858 5.8944V7.00601L0.348409 7.00613C0.149179 7.00613 -0.000364292 7.15768 -0.000364292 7.35988V8.65675C-0.000364292 8.85882 0.149057 9.0105 0.348409 9.0105L5.72858 9.01038L5.72858 10.122C5.72858 10.2735 5.81163 10.4251 5.96105 10.5093L5.96105 10.5093Z" fill="#003C40"/>
</svg>
