<svg width="26" height="24" viewBox="0 0 26 24" fill="none" xmlns="http://www.w3.org/2000/svg">
<path d="M16.4731 12.5352H12.0781L9.49512 16.8159H11.3977L9.9342 22.6728L16.506 15.2305H14.5717L16.4731 12.5352Z" fill="#FFC61B"/>
<path d="M6.31093 15.7571H5.25005C3.72599 15.7571 2.48618 14.5172 2.48618 12.9932C2.48618 11.8254 3.22555 10.7784 4.32604 10.3879C4.64728 10.2739 4.84978 9.95607 4.8172 9.61678C4.80314 9.46941 4.79597 9.32377 4.79597 9.18394C4.79597 6.71876 6.80153 4.7132 9.2667 4.7132C9.34288 4.7132 9.41853 4.71521 9.49377 4.71901C9.50835 4.71976 9.52274 4.72131 9.53722 4.7222C9.59844 4.72585 9.65952 4.72998 9.72008 4.73617C9.73138 4.73729 9.74254 4.73907 9.75383 4.74034C9.81758 4.74723 9.8811 4.75496 9.94405 4.76457C9.95169 4.76575 9.95919 4.76734 9.96679 4.76851C10.0332 4.77901 10.0991 4.7905 10.1645 4.8039L10.1805 4.80756C10.2479 4.82162 10.3147 4.8369 10.3809 4.85392L10.3935 4.85743C10.4607 4.87497 10.5274 4.89376 10.5933 4.91429L10.6027 4.91743C12.4172 5.48692 13.7373 7.18414 13.7373 9.18403C13.7373 9.59442 14.0701 9.9271 14.4804 9.9271C14.8907 9.9271 15.2234 9.59442 15.2234 9.18403C15.2234 7.02218 14.0657 5.12594 12.3377 4.08197C13.2925 2.82586 14.7857 2.07046 16.391 2.07046C19.1977 2.07046 21.4813 4.35395 21.4813 7.16075C21.4813 7.90635 21.3226 8.62612 21.0098 9.30009C20.9178 9.49828 20.9178 9.72694 21.0095 9.92518C21.1013 10.1234 21.2757 10.2712 21.4863 10.3292C22.6801 10.6584 23.5139 11.7538 23.5139 12.9933C23.5139 14.5173 22.2739 15.7572 20.7499 15.7572H19.0694L6.31093 15.7571Z" fill="#FFC61B"/>
<path d="M22.6475 9.19036C22.8601 8.53757 22.9676 7.85779 22.9676 7.1607C22.9676 3.53442 20.0174 0.584229 16.3911 0.584229C14.1978 0.584229 12.1659 1.67483 10.9485 3.46828C10.7936 3.42258 10.6369 3.38419 10.479 3.35138C10.4675 3.34898 10.4558 3.34678 10.4444 3.34448C10.3617 3.32784 10.2787 3.31298 10.1952 3.29991C10.184 3.29813 10.1728 3.29611 10.1616 3.29447C10.069 3.2805 9.97607 3.26855 9.88269 3.25894C9.87238 3.25791 9.86197 3.25716 9.85162 3.25617C9.77146 3.24839 9.69102 3.24234 9.61035 3.23775C9.58747 3.23639 9.5646 3.23517 9.54163 3.23409C9.45032 3.22992 9.35877 3.22711 9.26685 3.22711C5.9822 3.22711 3.30997 5.89938 3.30997 9.18398C3.30997 9.19322 3.30997 9.2024 3.31006 9.21164C1.90859 9.9315 1 11.3881 1 12.9932C1 15.3367 2.90651 17.2433 5.25005 17.2433H6.31093C6.72128 17.2433 7.054 16.9106 7.054 16.5002C7.054 16.0898 6.72123 15.7571 6.31093 15.7571H5.25005C3.72599 15.7571 2.48618 14.5172 2.48618 12.9932C2.48618 11.8254 3.22555 10.7784 4.32604 10.3879C4.64728 10.2739 4.84978 9.95607 4.8172 9.61678C4.80314 9.46941 4.79597 9.32377 4.79597 9.18394C4.79597 6.71876 6.80153 4.7132 9.2667 4.7132C9.34288 4.7132 9.41853 4.71521 9.49377 4.71901C9.50835 4.71976 9.52274 4.72131 9.53722 4.7222C9.59844 4.72585 9.65952 4.72998 9.72008 4.73617C9.73138 4.73729 9.74254 4.73907 9.75383 4.74034C9.81758 4.74723 9.8811 4.75496 9.94405 4.76457C9.95169 4.76575 9.95919 4.76734 9.96679 4.76851C10.0332 4.77901 10.0991 4.7905 10.1645 4.8039C10.1699 4.80503 10.1752 4.80643 10.1805 4.80756C10.2479 4.82162 10.3147 4.8369 10.3809 4.85392C10.3852 4.85504 10.3893 4.85631 10.3935 4.85743C10.4607 4.87497 10.5274 4.89376 10.5933 4.91429C10.5965 4.91528 10.5996 4.91645 10.6027 4.91743C12.4172 5.48692 13.7373 7.18414 13.7373 9.18403C13.7373 9.59442 14.0701 9.9271 14.4804 9.9271C14.8907 9.9271 15.2234 9.59442 15.2234 9.18403C15.2234 7.02218 14.0657 5.12594 12.3377 4.08197C13.2925 2.82586 14.7857 2.07046 16.391 2.07046C19.1977 2.07046 21.4813 4.35395 21.4813 7.16075C21.4813 7.90635 21.3226 8.62612 21.0098 9.30009C20.9178 9.49828 20.9178 9.72694 21.0095 9.92518C21.1013 10.1234 21.2757 10.2712 21.4863 10.3292C22.6801 10.6584 23.5139 11.7538 23.5139 12.9933C23.5139 14.5173 22.2739 15.7572 20.7499 15.7572H19.0694C18.659 15.7572 18.3263 16.0899 18.3263 16.5003C18.3263 16.9107 18.6591 17.2434 19.0694 17.2434H20.7499C23.0934 17.2434 25 15.3368 25 12.9933C25.0002 11.3653 24.0647 9.89893 22.6475 9.19036Z" fill="#1E2274"/>
<path d="M9.93373 23.4159C9.81617 23.4159 9.69766 23.388 9.58821 23.3305C9.28502 23.171 9.1301 22.825 9.21311 22.4927L10.4459 17.5591H9.49502C9.22699 17.5591 8.97967 17.4147 8.84796 17.1814C8.71619 16.948 8.72031 16.6616 8.85878 16.4321L11.4418 12.1513C11.5764 11.9284 11.8177 11.7922 12.0781 11.7922H16.473C16.7506 11.7922 17.005 11.9469 17.1328 12.1933C17.2605 12.4398 17.2402 12.7368 17.0802 12.9637L16.0052 14.4875H16.506C16.7982 14.4875 17.0632 14.6587 17.1833 14.9251C17.3034 15.1914 17.2563 15.5035 17.063 15.7224L10.4912 23.1647C10.3461 23.3287 10.1416 23.4159 9.93373 23.4159ZM10.8112 16.0729H11.3975C11.6263 16.0729 11.8423 16.1783 11.9832 16.3586C12.124 16.5389 12.1739 16.7742 12.1184 16.9961L11.3934 19.8974L14.8583 15.9735H14.5715C14.2939 15.9735 14.0395 15.8188 13.9118 15.5724C13.784 15.326 13.8043 15.0289 13.9643 14.8021L15.0393 13.2782H12.4974L10.8112 16.0729Z" fill="#1E2274" stroke="#FFC61B" stroke-width="0.5" stroke-linejoin="round"/>
<path d="M16.1568 21.2349C15.9821 21.2349 15.8065 21.1736 15.6653 21.0489C15.3576 20.7772 15.3285 20.3076 15.6001 20L16.9264 18.4981C17.198 18.1905 17.6676 18.1612 17.9752 18.433C18.2829 18.7046 18.312 19.1742 18.0404 19.4818L16.7141 20.9837C16.5673 21.1501 16.3625 21.2349 16.1568 21.2349Z" fill="#1E2274" stroke="#FFC61B" stroke-width="0.5" stroke-linejoin="round"/>
<path d="M6.15683 21.2349C5.98208 21.2349 5.80653 21.1736 5.66529 21.0489C5.35765 20.7772 5.32854 20.3076 5.60014 20L6.92638 18.4981C7.19798 18.1905 7.66762 18.1612 7.97522 18.433C8.28286 18.7046 8.31197 19.1742 8.04037 19.4818L6.71413 20.9837C6.56727 21.1501 6.36252 21.2349 6.15683 21.2349Z" fill="#1E2274" stroke="#FFC61B" stroke-width="0.5" stroke-linejoin="round"/>
</svg>
