<svg width="24" height="24" viewBox="0 0 24 24" fill="none" xmlns="http://www.w3.org/2000/svg">
<g clip-path="url(#clip0_386_14937)">
<path d="M12 24C18.6274 24 24 18.6274 24 12C24 5.37258 18.6274 0 12 0C5.37258 0 0 5.37258 0 12C0 18.6274 5.37258 24 12 24Z" fill="#F15249"/>
<path d="M6.96484 17.4133L13.438 23.8865C18.8891 23.2429 23.2046 18.9653 23.886 13.5142L17.3749 7.00317L6.96484 17.4133Z" fill="#AD0E0E"/>
<path d="M17.6778 14.6499C18.2077 15.1798 18.2077 16.0884 17.6778 16.6183L16.6178 17.6783C16.0879 18.2082 15.1793 18.2082 14.6494 17.6783L6.3213 9.3502C5.79134 8.82023 5.79134 7.91171 6.3213 7.38174L7.4191 6.28395C7.94906 5.75398 8.85758 5.75398 9.38755 6.28395L17.6778 14.6499Z" fill="white"/>
<path d="M13.2869 10.2208L10.2207 13.2871L14.6497 17.6782C15.1797 18.2082 16.0882 18.2082 16.6182 17.6782L17.716 16.5804C18.2459 16.0505 18.2459 15.142 17.716 14.612L13.2869 10.2208Z" fill="#D6D6D6"/>
<path d="M14.6494 6.32179C15.1793 5.79182 16.0879 5.79182 16.6178 6.32179L17.7156 7.41958C18.2456 7.94955 18.2456 8.85807 17.7156 9.38804L9.3497 17.6783C8.81973 18.2082 7.91121 18.2082 7.38124 17.6783L6.3213 16.6183C5.79134 16.0884 5.79134 15.1798 6.3213 14.6499L14.6494 6.32179Z" fill="white"/>
</g>
<defs>
<clipPath id="clip0_386_14937">
<rect width="24" height="24" fill="white"/>
</clipPath>
</defs>
</svg>
