<svg width="20" height="20" viewBox="0 0 20 20" fill="none" xmlns="http://www.w3.org/2000/svg">
<path d="M6.82325 9.64568L1.0749 3.92232C0.798193 3.6413 0.610733 3.28474 0.536117 2.89744C0.461369 2.50946 0.503214 2.10804 0.656373 1.74382L0.656389 1.74382L0.657962 1.73999C0.808002 1.37476 1.0628 1.0621 1.39024 0.841436C1.71735 0.620989 2.10234 0.502201 2.49678 0.5H17.4955C18.0259 0.5 18.5346 0.710714 18.9097 1.08579C19.2848 1.46086 19.4955 1.96957 19.4955 2.5V5C19.4955 5.53043 19.2848 6.03914 18.9097 6.41421C18.5346 6.78929 18.0259 7 17.4955 7C16.965 7 16.4563 6.78929 16.0813 6.41421C15.7062 6.03914 15.4955 5.53043 15.4955 5V4.5H14.9955H8.52046H7.30674L8.16828 5.35492L11.4183 8.57992L11.4184 8.58C11.6058 8.76593 11.7546 8.98713 11.8561 9.23085C11.9577 9.47457 12.01 9.73598 12.01 10C12.01 10.264 11.9577 10.5254 11.8561 10.7692C11.7546 11.0129 11.6058 11.2341 11.4184 11.42L11.4183 11.4201L8.16828 14.6451L7.30674 15.5H8.52046H14.9955H15.4955V15C15.4955 14.4696 15.7062 13.9609 16.0813 13.5858C16.4563 13.2107 16.965 13 17.4955 13C18.0259 13 18.5346 13.2107 18.9097 13.5858C19.2848 13.9609 19.4955 14.4696 19.4955 15V17.5C19.4955 18.0304 19.2848 18.5391 18.9097 18.9142C18.5346 19.2893 18.0259 19.5 17.4955 19.5H2.49688C2.1024 19.4978 1.71738 19.379 1.39024 19.1586L1.11398 19.5685L1.39024 19.1586C1.0628 18.9379 0.808002 18.6252 0.657962 18.26L0.657978 18.26L0.656374 18.2562C0.503214 17.892 0.461369 17.4905 0.536117 17.1026C0.610737 16.7152 0.798215 16.3587 1.07495 16.0776C1.07542 16.0771 1.0759 16.0767 1.07637 16.0762L6.82325 10.3543L7.17912 10L6.82325 9.64568Z" fill="#048C8C" stroke="white"/>
</svg>
