<svg width="24" height="24" viewBox="0 0 24 24" fill="none" xmlns="http://www.w3.org/2000/svg">
<path d="M12.0003 16.5843C10.7758 16.5843 9.62462 16.1075 8.7587 15.2416C7.89287 14.3758 7.41602 13.2246 7.41602 12.0001C7.41602 10.7755 7.89288 9.62438 8.75875 8.75846C9.62458 7.89263 10.7758 7.41577 12.0003 7.41577C13.2248 7.41577 14.376 7.89263 15.2419 8.75851C16.1077 9.62433 16.5846 10.7755 16.5846 12.0001C16.5846 13.2246 16.1077 14.3757 15.2418 15.2416C14.376 16.1075 13.2248 16.5843 12.0003 16.5843ZM12.0003 8.70662C11.1206 8.70662 10.2936 9.04922 9.67155 9.67126C9.04947 10.2933 8.70686 11.1204 8.70686 12.0001C8.70686 12.8797 9.04947 13.7068 9.6715 14.3288C10.2936 14.9509 11.1206 15.2934 12.0002 15.2934C12.8799 15.2934 13.707 14.9508 14.329 14.3288C14.951 13.7068 15.2937 12.8797 15.2937 12.0001C15.2937 11.1204 14.9511 10.2933 14.3291 9.6713C13.707 9.04923 12.88 8.70662 12.0003 8.70662Z" fill="#FFC61B"/>
<path d="M11.9999 4.04527C11.6434 4.04527 11.3545 3.75633 11.3545 3.39984V0.645422C11.3545 0.288938 11.6434 0 11.9999 0C12.3564 0 12.6453 0.288938 12.6453 0.645422V3.39984C12.6453 3.75633 12.3564 4.04527 11.9999 4.04527Z" fill="#FFC61B"/>
<path d="M11.9999 24C11.6434 24 11.3545 23.711 11.3545 23.3546V20.6001C11.3545 20.2436 11.6434 19.9547 11.9999 19.9547C12.3564 19.9547 12.6453 20.2436 12.6453 20.6001V23.3546C12.6453 23.711 12.3564 24 11.9999 24Z" fill="#FFC61B"/>
<path d="M18.081 6.56428C17.9158 6.56428 17.7506 6.50123 17.6246 6.37523C17.3725 6.12319 17.3725 5.71453 17.6246 5.46239L18.2126 4.87439C18.4646 4.62244 18.8733 4.62244 19.1254 4.87439C19.3775 5.12644 19.3775 5.53509 19.1254 5.78723L18.5374 6.37523C18.4114 6.50119 18.2461 6.56428 18.081 6.56428Z" fill="#FFC61B"/>
<path d="M5.33096 19.3145C5.16577 19.3145 5.00058 19.2515 4.87458 19.1255C4.62254 18.8734 4.62254 18.4648 4.87458 18.2126L5.46258 17.6246C5.71463 17.3727 6.12329 17.3727 6.37543 17.6246C6.62747 17.8767 6.62747 18.2853 6.37543 18.5375L5.78743 19.1255C5.66138 19.2515 5.49614 19.3145 5.33096 19.3145Z" fill="#FFC61B"/>
<path d="M5.91896 6.56428C5.75377 6.56428 5.58858 6.50123 5.46258 6.37523L4.87458 5.78723C4.62254 5.53519 4.62254 5.12653 4.87458 4.87439C5.12663 4.62244 5.53529 4.62244 5.78743 4.87439L6.37543 5.46239C6.62747 5.71444 6.62747 6.12309 6.37543 6.37523C6.24929 6.50119 6.0841 6.56428 5.91896 6.56428Z" fill="#FFC61B"/>
<path d="M18.669 19.3145C18.5038 19.3145 18.3386 19.2515 18.2126 19.1255L17.6246 18.5375C17.3725 18.2854 17.3725 17.8768 17.6246 17.6246C17.8766 17.3727 18.2853 17.3727 18.5374 17.6246L19.1254 18.2126C19.3775 18.4647 19.3775 18.8733 19.1254 19.1255C18.9994 19.2515 18.8342 19.3145 18.669 19.3145Z" fill="#FFC61B"/>
<path d="M23.3549 12.6455H20.6005C20.244 12.6455 19.9551 12.3565 19.9551 12C19.9551 11.6436 20.244 11.3546 20.6005 11.3546H23.3549C23.7114 11.3546 24.0003 11.6436 24.0003 12C24.0003 12.3565 23.7114 12.6455 23.3549 12.6455Z" fill="#FFC61B"/>
<path d="M3.39984 12.6455H0.645422C0.288938 12.6455 0 12.3565 0 12C0 11.6436 0.288938 11.3546 0.645422 11.3546H3.39984C3.75633 11.3546 4.04527 11.6436 4.04527 12C4.04527 12.3565 3.75633 12.6455 3.39984 12.6455Z" fill="#FFC61B"/>
</svg>
