<svg width="301" height="302" viewBox="0 0 301 302" fill="none" xmlns="http://www.w3.org/2000/svg">
    <g filter="url(#filter0_df_48_10318)">
    <path d="M167.72 69.6946L150.613 86.6507L213.643 149.177L230.599 132.22L167.72 69.6946Z" fill="#0A3A54"/>
    <path d="M19 183.442L93.8898 257.272L103.428 232.898L53.9721 183.442L70.7517 166.309L87.5312 149.177L150.613 86.6507L134.445 69.6946L19 183.442Z" fill="#0A3A54"/>
    <path d="M150.613 211.703L87.5312 149.177L70.7517 166.309L132.748 229.718L150.613 211.703Z" fill="#0A3A54"/>
    <path d="M167.72 229.718L150.613 211.703L132.748 229.718L138.4 234.311H163.481L167.72 229.718Z" fill="#0A3A54"/>
    <path d="M230.599 132.22L213.643 149.177L150.613 211.703L167.72 229.718L230.599 166.309L282.174 114.911L207.991 40.7278L197.393 65.1023L248.262 114.911L230.599 132.22Z" fill="#0A3A54"/>
    <path d="M230.599 132.22L213.643 149.177L150.613 211.703L167.72 229.718L230.599 166.309L282.174 114.911L207.991 40.7278L197.393 65.1023L248.262 114.911L230.599 132.22Z" fill="#1CDACE"/>
    <path d="M93.8898 40.7278H207.991L184.323 16H116.851L93.8898 40.7278Z" fill="#0A3A54"/>
    <path d="M282.174 149.177V182.382L232.012 232.898H198.806L282.174 149.177Z" fill="#0A3A54"/>
    <path d="M19 115.618L69.162 65.1023H103.428L19 149.177V115.618Z" fill="#1CDACE"/>
    <path d="M207.991 257.272H93.8898L116.851 282H183.616L207.991 257.272Z" fill="#1CDACE"/>
    <path d="M167.72 69.6946L163.127 65.1023H139.106L134.445 69.6946L150.613 86.6507L167.72 69.6946Z" fill="#1CDACE"/>
    <path d="M207.991 40.7278H93.8898L116.851 16H184.323L207.991 40.7278ZM207.991 40.7278L282.174 114.911L230.599 166.309L167.72 229.718M207.991 40.7278L197.393 65.1023L248.262 114.911L230.599 132.22M93.8898 257.272L19 183.442L134.445 69.6946M93.8898 257.272H207.991L183.616 282H116.851L93.8898 257.272ZM93.8898 257.272L103.428 232.898L53.9721 183.442L70.7517 166.309M87.5312 149.177L150.613 86.6507M87.5312 149.177L150.613 211.703M87.5312 149.177L70.7517 166.309M167.72 69.6946L163.127 65.1023H139.106L134.445 69.6946M167.72 69.6946L150.613 86.6507M167.72 69.6946L230.599 132.22M134.445 69.6946L150.613 86.6507M150.613 86.6507L213.643 149.177M213.643 149.177L230.599 132.22M213.643 149.177L150.613 211.703M150.613 211.703L167.72 229.718M150.613 211.703L132.748 229.718M167.72 229.718L163.481 234.311H138.4L132.748 229.718M132.748 229.718L70.7517 166.309M19 115.618L69.162 65.1023H103.428L19 149.177V115.618ZM282.174 149.177V182.382L232.012 232.898H198.806L282.174 149.177Z" stroke="white" stroke-width="3"/>
    </g>
    <defs>
    <filter id="filter0_df_48_10318" x="0.863098" y="0.5" width="299.434" height="301" filterUnits="userSpaceOnUse" color-interpolation-filters="sRGB">
    <feFlood flood-opacity="0" result="BackgroundImageFix"/>
    <feColorMatrix in="SourceAlpha" type="matrix" values="0 0 0 0 0 0 0 0 0 0 0 0 0 0 0 0 0 0 127 0" result="hardAlpha"/>
    <feOffset dy="2"/>
    <feGaussianBlur stdDeviation="8"/>
    <feComposite in2="hardAlpha" operator="out"/>
    <feColorMatrix type="matrix" values="0 0 0 0 0.0392157 0 0 0 0 0.227451 0 0 0 0 0.329412 0 0 0 0.48 0"/>
    <feBlend mode="normal" in2="BackgroundImageFix" result="effect1_dropShadow_48_10318"/>
    <feBlend mode="normal" in="SourceGraphic" in2="effect1_dropShadow_48_10318" result="shape"/>
    <feGaussianBlur stdDeviation="0.05" result="effect2_foregroundBlur_48_10318"/>
    </filter>
    </defs>
    </svg>
    