<svg width="665" height="668" viewBox="0 0 665 668" fill="none" xmlns="http://www.w3.org/2000/svg">
<g clip-path="url(#clip0_417_16769)">
<g filter="url(#filter0_d_417_16769)">
<path d="M374.413 138.208L332.611 179.643L486.631 332.432L528.065 290.997L374.413 138.208Z" fill="#0A3A54"/>
<path d="M11 416.163L194.001 596.575L217.308 537.013L96.4582 416.163L137.461 374.297L178.464 332.432L332.611 179.643L293.103 138.208L11 416.163Z" fill="#0A3A54"/>
<path d="M332.611 485.22L178.464 332.432L137.461 374.297L288.955 529.244L332.611 485.22Z" fill="#0A3A54"/>
<path d="M374.413 529.244L332.611 485.22L288.955 529.244L302.766 540.466H364.055L374.413 529.244Z" fill="#0A3A54"/>
<path d="M528.065 290.997L486.631 332.432L332.611 485.22L374.413 529.244L528.065 374.297L654.094 248.7L472.819 67.425L446.923 126.987L571.226 248.7L528.065 290.997Z" fill="#0A3A54"/>
<path d="M528.065 290.997L486.631 332.432L332.611 485.22L374.413 529.244L528.065 374.297L654.094 248.7L472.819 67.425L446.923 126.987L571.226 248.7L528.065 290.997Z" fill="#1CDACE"/>
<path d="M194.001 67.425H472.819L414.984 7H250.11L194.001 67.425Z" fill="#0A3A54"/>
<path d="M654.094 332.432V413.574L531.518 537.013H450.376L654.094 332.432Z" fill="#0A3A54"/>
<path d="M11 250.426L133.576 126.987H217.308L11 332.432V250.426Z" fill="#1CDACE"/>
<path d="M472.819 596.575H194.001L250.11 657H413.258L472.819 596.575Z" fill="#1CDACE"/>
<path d="M374.413 138.208L363.191 126.987H304.493L293.103 138.208L332.611 179.643L374.413 138.208Z" fill="#1CDACE"/>
<path d="M472.819 67.425H194.001L250.11 7H414.984L472.819 67.425ZM472.819 67.425L654.094 248.7L528.065 374.297L374.413 529.244M472.819 67.425L446.923 126.987L571.226 248.7L528.065 290.997M194.001 596.575L11 416.163L293.103 138.208M194.001 596.575H472.819L413.258 657H250.11L194.001 596.575ZM194.001 596.575L217.308 537.013L96.4582 416.163L137.461 374.297M178.464 332.432L332.611 179.643M178.464 332.432L332.611 485.22M178.464 332.432L137.461 374.297M374.413 138.208L363.191 126.987H304.493L293.103 138.208M374.413 138.208L332.611 179.643M374.413 138.208L528.065 290.997M293.103 138.208L332.611 179.643M332.611 179.643L486.631 332.432M486.631 332.432L528.065 290.997M486.631 332.432L332.611 485.22M332.611 485.22L374.413 529.244M332.611 485.22L288.955 529.244M374.413 529.244L364.055 540.466H302.766L288.955 529.244M288.955 529.244L137.461 374.297M11 250.426L133.576 126.987H217.308L11 332.432V250.426ZM654.094 332.432V413.574L531.518 537.013H450.376L654.094 332.432Z" stroke="white" stroke-width="6"/>
</g>
</g>
<defs>
<filter id="filter0_d_417_16769" x="0.726074" y="0" width="663.615" height="668" filterUnits="userSpaceOnUse" color-interpolation-filters="sRGB">
<feFlood flood-opacity="0" result="BackgroundImageFix"/>
<feColorMatrix in="SourceAlpha" type="matrix" values="0 0 0 0 0 0 0 0 0 0 0 0 0 0 0 0 0 0 127 0" result="hardAlpha"/>
<feOffset dy="2"/>
<feGaussianBlur stdDeviation="3"/>
<feComposite in2="hardAlpha" operator="out"/>
<feColorMatrix type="matrix" values="0 0 0 0 0 0 0 0 0 0 0 0 0 0 0 0 0 0 0.25 0"/>
<feBlend mode="normal" in2="BackgroundImageFix" result="effect1_dropShadow_417_16769"/>
<feBlend mode="normal" in="SourceGraphic" in2="effect1_dropShadow_417_16769" result="shape"/>
</filter>
<clipPath id="clip0_417_16769">
<rect width="665" height="668" fill="white"/>
</clipPath>
</defs>
</svg>
